<svg xmlns="http://www.w3.org/2000/svg" width="336" height="35" viewBox="0 0 336 35"><rect class="svg__rect" x="0" y="0" width="119.67" height="35" fill="#961514"/><rect class="svg__rect" x="117.67" y="0" width="218.32999999999998" height="35" fill="#EA4560"/><path class="svg__text" d="M13.95 18.19L13.95 18.19L13.95 17.39Q13.95 16.19 14.38 15.27Q14.80 14.35 15.60 13.85Q16.40 13.35 17.45 13.35L17.45 13.35Q18.86 13.35 19.73 14.12Q20.59 14.89 20.73 16.29L20.73 16.29L19.25 16.29Q19.14 15.37 18.71 14.96Q18.28 14.55 17.45 14.55L17.45 14.55Q16.48 14.55 15.97 15.26Q15.45 15.96 15.44 17.33L15.44 17.33L15.44 18.09Q15.44 19.47 15.93 20.20Q16.43 20.92 17.38 20.92L17.38 20.92Q18.25 20.92 18.69 20.53Q19.13 20.14 19.25 19.22L19.25 19.22L20.73 19.22Q20.60 20.59 19.72 21.35Q18.84 22.12 17.38 22.12L17.38 22.12Q16.36 22.12 15.59 21.63Q14.81 21.15 14.39 20.26Q13.97 19.37 13.95 18.19ZM24.77 18.00L24.77 18.00L24.77 17.52Q24.77 16.28 25.21 15.32Q25.65 14.37 26.46 13.86Q27.27 13.35 28.31 13.35Q29.35 13.35 30.16 13.85Q30.96 14.35 31.40 15.29Q31.84 16.23 31.85 17.48L31.85 17.48L31.85 17.96Q31.85 19.21 31.41 20.16Q30.98 21.10 30.18 21.61Q29.37 22.12 28.32 22.12L28.32 22.12Q27.28 22.12 26.47 21.61Q25.66 21.10 25.22 20.17Q24.78 19.23 24.77 18.00ZM26.25 17.46L26.25 17.96Q26.25 19.36 26.80 20.13Q27.35 20.90 28.32 20.90L28.32 20.90Q29.31 20.90 29.84 20.15Q30.37 19.40 30.37 17.96L30.37 17.96L30.37 17.51Q30.37 16.09 29.83 15.34Q29.29 14.58 28.31 14.58L28.31 14.58Q27.35 14.58 26.81 15.33Q26.26 16.09 26.25 17.46L26.25 17.46ZM37.79 22L36.31 22L36.31 13.47L38.23 13.47L40.70 20.01L43.15 13.47L45.07 13.47L45.07 22L43.59 22L43.59 19.19L43.74 15.43L41.22 22L40.16 22L37.64 15.43L37.79 19.19L37.79 22ZM51.29 22L49.81 22L49.81 13.47L53.07 13.47Q54.50 13.47 55.34 14.21Q56.18 14.96 56.18 16.18L56.18 16.18Q56.18 17.44 55.36 18.13Q54.54 18.83 53.05 18.83L53.05 18.83L51.29 18.83L51.29 22ZM51.29 14.66L51.29 17.64L53.07 17.64Q53.86 17.64 54.28 17.27Q54.69 16.90 54.69 16.19L54.69 16.19Q54.69 15.50 54.27 15.09Q53.85 14.68 53.11 14.66L53.11 14.66L51.29 14.66ZM60.33 19.16L60.33 19.16L60.33 13.47L61.81 13.47L61.81 19.18Q61.81 20.03 62.24 20.48Q62.67 20.93 63.52 20.93L63.52 20.93Q65.23 20.93 65.23 19.13L65.23 19.13L65.23 13.47L66.71 13.47L66.71 19.17Q66.71 20.53 65.84 21.32Q64.97 22.12 63.52 22.12L63.52 22.12Q62.05 22.12 61.19 21.33Q60.33 20.55 60.33 19.16ZM72.96 14.66L70.32 14.66L70.32 13.47L77.09 13.47L77.09 14.66L74.43 14.66L74.43 22L72.96 22L72.96 14.66ZM86.42 22L80.84 22L80.84 13.47L86.38 13.47L86.38 14.66L82.33 14.66L82.33 17.02L85.83 17.02L85.83 18.19L82.33 18.19L82.33 20.82L86.42 20.82L86.42 22ZM92.10 22L90.62 22L90.62 13.47L93.62 13.47Q95.09 13.47 95.90 14.13Q96.70 14.79 96.70 16.05L96.70 16.05Q96.70 16.90 96.29 17.48Q95.87 18.06 95.14 18.37L95.14 18.37L97.05 21.92L97.05 22L95.46 22L93.75 18.71L92.10 18.71L92.10 22ZM92.10 14.66L92.10 17.52L93.62 17.52Q94.37 17.52 94.80 17.15Q95.22 16.77 95.22 16.11L95.22 16.11Q95.22 15.43 94.83 15.05Q94.44 14.68 93.66 14.66L93.66 14.66L92.10 14.66ZM102.00 15.60L100.58 15.60Q100.59 14.56 101.28 13.96Q101.98 13.35 103.12 13.35L103.12 13.35Q104.30 13.35 104.96 13.95Q105.62 14.55 105.62 15.62L105.62 15.62Q105.62 16.57 104.73 17.50L104.73 17.50L104.01 18.21Q103.62 18.65 103.61 19.49L103.61 19.49L102.28 19.49Q102.28 18.71 102.47 18.25Q102.66 17.79 103.24 17.23Q103.81 16.68 103.96 16.45L103.96 16.45Q104.19 16.09 104.19 15.67L104.19 15.67Q104.19 15.12 103.92 14.83Q103.65 14.54 103.12 14.54L103.12 14.54Q102.62 14.54 102.31 14.83Q102.00 15.11 102.00 15.60L102.00 15.60ZM102.18 21.31L102.18 21.31Q102.18 20.97 102.39 20.75Q102.61 20.54 102.98 20.54L102.98 20.54Q103.36 20.54 103.57 20.76Q103.79 20.98 103.79 21.31L103.79 21.31Q103.79 21.64 103.58 21.85Q103.37 22.07 102.98 22.07Q102.59 22.07 102.39 21.85Q102.18 21.64 102.18 21.31Z" fill="#FFFFFF"/><path class="svg__text" d="M134.24 22L131.86 22L131.86 13.60L134.24 13.60L134.24 22ZM148.76 22L146.38 22L146.38 13.60L148.76 13.60L148.76 16.76L152.00 16.76L152.00 13.60L154.38 13.60L154.38 22L152.00 22L152.00 18.72L148.76 18.72L148.76 22ZM160.96 22L158.53 22L162.24 13.60L164.58 13.60L168.30 22L165.83 22L165.17 20.37L161.62 20.37L160.96 22ZM163.39 15.93L162.31 18.61L164.47 18.61L163.39 15.93ZM174.83 22L172.45 22L172.45 13.60L176.30 13.60Q177.44 13.60 178.28 13.98Q179.11 14.35 179.57 15.06Q180.03 15.76 180.03 16.71L180.03 16.71Q180.03 17.62 179.60 18.30Q179.17 18.98 178.38 19.36L178.38 19.36L180.19 22L177.65 22L176.13 19.77L174.83 19.77L174.83 22ZM174.83 15.47L174.83 17.93L176.15 17.93Q176.88 17.93 177.25 17.61Q177.63 17.29 177.63 16.71L177.63 16.71Q177.63 16.12 177.25 15.79Q176.88 15.47 176.15 15.47L176.15 15.47L174.83 15.47ZM188.79 22L184.81 22L184.81 13.60L188.79 13.60Q190.17 13.60 191.24 14.12Q192.30 14.63 192.89 15.58Q193.48 16.53 193.48 17.80L193.48 17.80Q193.48 19.07 192.89 20.02Q192.30 20.97 191.24 21.48Q190.17 22 188.79 22L188.79 22ZM187.19 15.50L187.19 20.10L188.69 20.10Q189.77 20.10 190.43 19.49Q191.08 18.88 191.08 17.80L191.08 17.80Q191.08 16.72 190.43 16.11Q189.77 15.50 188.69 15.50L188.69 15.50L187.19 15.50ZM204.60 22L198.21 22L198.21 13.60L200.59 13.60L200.59 20.11L204.60 20.11L204.60 22ZM211.14 18.95L207.94 13.60L210.44 13.60L212.44 16.94L214.43 13.60L216.73 13.60L213.51 18.99L213.51 22L211.14 22L211.14 18.95ZM230.14 22L227.79 22L227.79 13.60L230.14 13.60L230.14 17.09L233.40 13.60L236.01 13.60L232.58 17.32L236.19 22L233.43 22L231.03 18.95L230.14 19.90L230.14 22ZM242.63 22L240.30 22L240.30 13.60L242.25 13.60L245.96 18.07L245.96 13.60L248.29 13.60L248.29 22L246.34 22L242.63 17.52L242.63 22ZM253.02 17.80L253.02 17.80Q253.02 16.55 253.63 15.55Q254.23 14.56 255.29 14.00Q256.36 13.43 257.69 13.43L257.69 13.43Q259.02 13.43 260.08 14.00Q261.15 14.56 261.75 15.55Q262.36 16.55 262.36 17.80L262.36 17.80Q262.36 19.05 261.75 20.04Q261.15 21.04 260.08 21.60Q259.02 22.17 257.69 22.17L257.69 22.17Q256.36 22.17 255.29 21.60Q254.23 21.04 253.63 20.04Q253.02 19.05 253.02 17.80ZM255.42 17.80L255.42 17.80Q255.42 18.51 255.72 19.05Q256.02 19.60 256.54 19.90Q257.06 20.20 257.69 20.20L257.69 20.20Q258.33 20.20 258.84 19.90Q259.36 19.60 259.66 19.05Q259.96 18.51 259.96 17.80L259.96 17.80Q259.96 17.09 259.66 16.54Q259.36 16 258.84 15.70Q258.33 15.40 257.69 15.40L257.69 15.40Q257.05 15.40 256.54 15.70Q256.02 16 255.72 16.54Q255.42 17.09 255.42 17.80ZM269.17 22L266.44 13.60L268.89 13.60L270.58 18.96L272.35 13.60L274.54 13.60L276.23 19.01L278.00 13.60L280.26 13.60L277.54 22L275.00 22L273.39 16.89L271.71 22L269.17 22ZM294.13 22L291.75 22L291.75 13.60L294.13 13.60L294.13 16.76L297.37 16.76L297.37 13.60L299.74 13.60L299.74 22L297.37 22L297.37 18.72L294.13 18.72L294.13 22ZM311.65 22L304.90 22L304.90 13.60L311.49 13.60L311.49 15.44L307.26 15.44L307.26 16.85L310.99 16.85L310.99 18.63L307.26 18.63L307.26 20.17L311.65 20.17L311.65 22ZM318.83 22L316.45 22L316.45 13.60L320.30 13.60Q321.44 13.60 322.28 13.98Q323.11 14.35 323.57 15.06Q324.03 15.76 324.03 16.71L324.03 16.71Q324.03 17.62 323.60 18.30Q323.17 18.98 322.38 19.36L322.38 19.36L324.19 22L321.65 22L320.13 19.77L318.83 19.77L318.83 22ZM318.83 15.47L318.83 17.93L320.15 17.93Q320.88 17.93 321.25 17.61Q321.63 17.29 321.63 16.71L321.63 16.71Q321.63 16.12 321.25 15.79Q320.88 15.47 320.15 15.47L320.15 15.47L318.83 15.47Z" fill="#FFFFFF" x="130.67000000000002"/></svg>